<svg xmlns="http://www.w3.org/2000/svg" viewBox="0 0 341.95 511.24"><defs><style>.cls-1{fill:#fff;stroke:#231f20;stroke-miterlimit:10;}</style></defs><g id="Layer_2" data-name="Layer 2"><g id="Layer_2-2" data-name="Layer 2"><rect class="cls-1" x="0.5" y="0.5" width="340.16" height="510.24"/><line class="cls-1" x1="0.5" y1="459.71" x2="340.66" y2="459.71"/><line class="cls-1" x1="0.5" y1="408.69" x2="340.66" y2="408.69"/><line class="cls-1" x1="340.66" y1="357.67" x2="0.5" y2="357.67"/><line class="cls-1" x1="340.66" y1="306.64" x2="0.5" y2="306.64"/><line class="cls-1" x1="0.5" y1="255.62" x2="340.66" y2="255.62"/><line class="cls-1" x1="0.5" y1="204.59" x2="340.66" y2="204.59"/><line class="cls-1" x1="0.5" y1="153.57" x2="340.66" y2="153.57"/><line class="cls-1" x1="0.5" y1="102.55" x2="340.66" y2="102.55"/><line class="cls-1" x1="0.5" y1="51.52" x2="340.66" y2="51.52"/><line class="cls-1" x1="292.06" y1="0.5" x2="292.06" y2="510.74"/><line class="cls-1" x1="243.47" y1="0.5" x2="243.47" y2="510.74"/><line class="cls-1" x1="194.88" y1="0.5" x2="194.88" y2="510.74"/><line class="cls-1" x1="146.28" y1="0.5" x2="146.28" y2="510.74"/><line class="cls-1" x1="97.69" y1="0.5" x2="97.69" y2="510.74"/><line class="cls-1" x1="49.09" y1="510.74" x2="49.09" y2="0.5"/></g><g id="Layer_3" data-name="Layer 3"><line class="cls-1" x1="0.5" y1="0.5" x2="340.66" y2="357.67"/><line class="cls-1" x1="49.09" y1="0.5" x2="340.66" y2="306.64"/><line class="cls-1" x1="97.69" y1="0.5" x2="340.66" y2="255.62"/><line class="cls-1" x1="146.28" y1="0.5" x2="340.66" y2="204.59"/><line class="cls-1" x1="340.66" y1="153.57" x2="194.88" y2="0.5"/><line class="cls-1" x1="243.47" y1="0.5" x2="340.66" y2="102.55"/><line class="cls-1" x1="292.06" y1="0.5" x2="341.59" y2="51.52"/><line class="cls-1" x1="0.5" y1="51.52" x2="340.66" y2="408.69"/><line class="cls-1" x1="0.5" y1="102.55" x2="340.66" y2="459.71"/><line class="cls-1" x1="0.5" y1="153.57" x2="340.66" y2="510.74"/><line class="cls-1" x1="0.5" y1="204.59" x2="292.06" y2="510.74"/><line class="cls-1" x1="0.5" y1="255.62" x2="243.47" y2="510.74"/><line class="cls-1" x1="0.5" y1="306.64" x2="194.88" y2="510.74"/><line class="cls-1" x1="0.5" y1="357.67" x2="146.28" y2="510.74"/><line class="cls-1" x1="0.5" y1="408.69" x2="97.69" y2="510.74"/><line class="cls-1" x1="0.5" y1="459.71" x2="49.09" y2="510.74"/></g><g id="Layer_4" data-name="Layer 4"><line class="cls-1" x1="0.5" y1="51.52" x2="49.09" y2="0.5"/><line class="cls-1" x1="0.5" y1="102.55" x2="97.69" y2="0.5"/><line class="cls-1" x1="0.5" y1="153.57" x2="146.28" y2="0.5"/><line class="cls-1" x1="0.5" y1="204.59" x2="194.88" y2="0.5"/><line class="cls-1" x1="0.5" y1="255.62" x2="243.47" y2="0.5"/><line class="cls-1" x1="0.5" y1="306.64" x2="292.06" y2="0.5"/><line class="cls-1" x1="0.5" y1="357.67" x2="340.66" y2="0.5"/><line class="cls-1" x1="0.5" y1="408.69" x2="340.66" y2="51.52"/><line class="cls-1" x1="0.5" y1="459.71" x2="340.66" y2="102.55"/><line class="cls-1" x1="0.5" y1="510.74" x2="340.66" y2="153.57"/><line class="cls-1" x1="49.09" y1="510.74" x2="340.66" y2="204.59"/><line class="cls-1" x1="97.69" y1="510.74" x2="340.66" y2="255.62"/><line class="cls-1" x1="146.28" y1="510.74" x2="340.66" y2="306.64"/><line class="cls-1" x1="194.88" y1="510.74" x2="340.66" y2="357.67"/><line class="cls-1" x1="243.47" y1="510.74" x2="340.66" y2="408.69"/><line class="cls-1" x1="292.06" y1="510.74" x2="340.66" y2="459.71"/></g></g></svg>